<svg xmlns="http://www.w3.org/2000/svg" xmlns:xlink="http://www.w3.org/1999/xlink" xml:space="preserve" version="1.1" style="shape-rendering:geometricPrecision;text-rendering:geometricPrecision;image-rendering:optimizeQuality;" viewBox="0 0 359 342.5" x="0px" y="0px" fill-rule="evenodd" clip-rule="evenodd"><defs><style type="text/css">
   
    .fil0 {fill:white;fill-rule:nonzero}
   
  </style></defs><g><path class="fil0" d="M28 0l303 0c15,0 28,13 28,28l0 218c0,15 -13,28 -28,28l-303 0c-15,0 -28,-13 -28,-28l0 -218c0,-15 13,-28 28,-28zm-8 37l149 75c7,3 14,3 21,0l149 -75 0 -9c0,-4 -4,-8 -8,-8l-303 0c-4,0 -8,4 -8,8l0 9zm319 23l-140 69c-13,7 -27,7 -39,0l-140 -69 0 186c0,4 4,8 8,8l303 0c4,0 8,-4 8,-8l0 -186z"/></g></svg>