<svg xmlns="http://www.w3.org/2000/svg" xmlns:xlink="http://www.w3.org/1999/xlink" version="1.1" x="0px" y="0px" viewBox="0 0 100 125" enable-background="new 0 0 100 100" xml:space="preserve" fill="#ffffff"><g><path d="M73.177,20.994h-4.991l-0.748-3.478c-0.149-0.691-0.76-1.185-1.467-1.185H34.03c-0.707,0-1.318,0.494-1.466,1.185   l-0.748,3.478h-4.991c-0.829,0-1.5,0.671-1.5,1.5v4.647c0,0.829,0.671,1.5,1.5,1.5h1.741l0.649,7.146h-0.782   c-0.421,0-0.824,0.177-1.108,0.489s-0.424,0.728-0.386,1.148l2,21.886c0.07,0.772,0.718,1.363,1.494,1.363h1.043l1.631,17.952   c0.261,2.875,2.635,5.043,5.522,5.043h22.584c2.888,0,5.262-2.168,5.523-5.043l1.631-17.952h0.726c0.775,0,1.423-0.591,1.494-1.363   l2-21.886c0.038-0.42-0.103-0.836-0.387-1.148s-0.686-0.489-1.107-0.489h-0.465l0.65-7.146h1.899c0.828,0,1.5-0.671,1.5-1.5v-4.647   C74.677,21.666,74.005,20.994,73.177,20.994z M35.241,19.332h29.518l0.354,1.647H34.886L35.241,19.332z M63.748,78.354   c-0.12,1.319-1.21,2.314-2.535,2.314H38.629c-1.326,0-2.415-0.995-2.535-2.314l-1.606-17.681h30.867L63.748,78.354z M67.723,57.673   h-0.727H32.844h-1.043l-1.726-18.886h0.781h38.129h0.464L67.723,57.673z M67.615,35.787H32.226l-0.649-7.146h36.688L67.615,35.787z    M71.677,25.641h-1.731c-0.013,0-0.025-0.004-0.037-0.004H29.934c-0.013,0-0.025,0.004-0.037,0.004h-1.573v-1.647h43.353V25.641z"/><path d="M35.493,41.753c-0.086-0.824-0.818-1.421-1.649-1.334c-0.824,0.086-1.421,0.825-1.334,1.649l1.371,13.025   c0.081,0.771,0.732,1.343,1.49,1.343c0.053,0,0.105-0.003,0.159-0.008c0.824-0.087,1.421-0.825,1.334-1.649L35.493,41.753z"/><path d="M40.109,40.414c-0.827,0.052-1.455,0.765-1.402,1.592l0.822,13.025c0.05,0.794,0.71,1.405,1.496,1.405   c0.032,0,0.064-0.001,0.096-0.003c0.827-0.052,1.455-0.765,1.402-1.592L41.7,41.816C41.648,40.989,40.936,40.361,40.109,40.414z"/><path d="M46.373,40.411c-0.828,0.017-1.485,0.703-1.468,1.531l0.274,13.024c0.017,0.817,0.685,1.469,1.499,1.469   c0.011,0,0.021,0,0.032,0c0.828-0.018,1.485-0.703,1.468-1.531l-0.274-13.025C47.887,41.051,47.184,40.359,46.373,40.411z"/><path d="M52.639,40.411c-0.798-0.044-1.514,0.64-1.531,1.468l-0.274,13.025c-0.018,0.828,0.64,1.514,1.468,1.531   c0.011,0,0.021,0,0.032,0c0.813,0,1.482-0.651,1.499-1.469l0.274-13.024C54.125,41.114,53.467,40.428,52.639,40.411z"/><path d="M58.904,40.414c-0.847-0.051-1.54,0.576-1.592,1.402L56.49,54.841c-0.052,0.827,0.576,1.54,1.402,1.592   c0.032,0.002,0.064,0.003,0.096,0.003c0.786,0,1.446-0.611,1.496-1.405l0.822-13.025C60.358,41.178,59.73,40.466,58.904,40.414z"/><path d="M65.169,40.419c-0.825-0.086-1.562,0.511-1.649,1.334l-1.371,13.025c-0.086,0.824,0.512,1.562,1.335,1.649   c0.054,0.005,0.106,0.008,0.159,0.008c0.758,0,1.409-0.572,1.49-1.343l1.371-13.025C66.59,41.244,65.992,40.505,65.169,40.419z"/></g>
</svg>